<svg xmlns="http://www.w3.org/2000/svg" width="1200" height="630" viewBox="0 0 1200 630">
<defs>
<radialGradient id="a" cx="0" cy="0" r="1" gradientTransform="translate(0 0) scale(800 500)" gradientUnits="userSpaceOnUse"><stop stop-color="#6D28D9" stop-opacity=".55"/><stop offset="1" stop-color="#6D28D9" stop-opacity="0"/></radialGradient>
<radialGradient id="b" cx="0" cy="0" r="1" gradientTransform="translate(1200 630) scale(800 500)" gradientUnits="userSpaceOnUse"><stop stop-color="#DB2777" stop-opacity=".5"/><stop offset="1" stop-color="#DB2777" stop-opacity="0"/></radialGradient>
<linearGradient id="g" x1="0" y1="0" x2="1" y2="1"><stop stop-color="#A78BFA"/><stop offset="1" stop-color="#EC4899"/></linearGradient>
</defs>
<rect width="1200" height="630" fill="#0B0D11"/><rect width="1200" height="630" fill="url(#a)"/><rect width="1200" height="630" fill="url(#b)"/>
<g transform="translate(80 84) scale(3)"><path fill="none" stroke="url(#g)" stroke-width="2.4" stroke-linecap="round" d="M12 3a9 9 0 1 0 9 9 6 6 0 0 0-6-6 4 4 0 0 0-4 4 2 2 0 0 0 2 2"/></g>
<text x="172" y="135" fill="#ECEEF2" font-family="Geist, Helvetica, Arial, sans-serif" font-size="56" font-weight="700">Eddy</text>
<text x="80" y="290" fill="#ECEEF2" font-family="Geist, Helvetica, Arial, sans-serif" font-size="68" font-weight="700" letter-spacing="-2">A fast, keyboard-first,</text>
<text x="80" y="370" fill="#ECEEF2" font-family="Geist, Helvetica, Arial, sans-serif" font-size="68" font-weight="700" letter-spacing="-2">multi-cluster UI for Flux.</text>
<text x="80" y="450" fill="#B9BFCB" font-family="Geist, Helvetica, Arial, sans-serif" font-size="30">Open source. Agents dial out. Kubernetes RBAC decides.</text>
<rect x="80" y="508" width="250" height="44" rx="22" fill="#14171C" stroke="#363C47"/>
<text x="205" y="537" text-anchor="middle" fill="#B9BFCB" font-family="Menlo, Consolas, monospace" font-size="18">v0.1 MVP · pre-release</text>
<g font-family="Menlo, Consolas, monospace" font-size="20" fill="#ECEEF2"><rect x="840" y="508" width="60" height="44" rx="8" fill="#14171C" stroke="#363C47"/><text x="870" y="537" text-anchor="middle">⌘K</text></g>
<rect x="920" y="508" width="200" height="44" rx="8" fill="#14171C" stroke="#363C47"/>
<text x="1020" y="537" text-anchor="middle" fill="#ECEEF2" font-family="Menlo, Consolas, monospace" font-size="18">idestis/eddy</text>
</svg>
